<svg width="3938" height="3100" viewBox="0 0 3938 3100" fill="none" xmlns="http://www.w3.org/2000/svg">
<path d="M1969 1550L3447 2325H491L1969 1550Z" fill="#E51B23"/>
<path d="M1969 3100L491 2325L3447 2325L1969 3100Z" fill="#E51B23"/>
<path d="M1969 0L3447 775H491L1969 0Z" fill="#F8C0C3"/>
<path d="M1969 1550L491 775L3447 775L1969 1550Z" fill="#F8C0C3"/>
<path d="M1969 1550L492.25 2323.36L492.25 776.639L1969 1550Z" fill="#F17F87"/>
<path d="M1969 1550L3445.75 776.639V2323.36L1969 1550Z" fill="#F8C0C3"/>
<rect x="1810.28" y="601.497" width="241.799" height="2091.45" rx="120.899" transform="rotate(-25 1810.28 601.497)" fill="#F4F4F4"/>
<rect x="1908.89" y="499" width="241.799" height="2091.45" rx="120.899" transform="rotate(25 1908.89 499)" fill="#F4F4F4"/>
<rect x="1877" y="1906.73" width="241.731" height="738.493" rx="120.866" transform="rotate(-90 1877 1906.73)" fill="#F4F4F4"/>
</svg>
