<svg width="13488" height="3155" viewBox="0 0 13488 3155" fill="none" xmlns="http://www.w3.org/2000/svg">
<path d="M4526.4 2330.72H4342.39V2515H4309.06V2120.43H4553.5V2148.88H4342.39V2302.27H4526.4V2330.72ZM4814.26 2249.42C4807.4 2248.16 4800.08 2247.53 4792.31 2247.53C4772.08 2247.53 4754.91 2253.22 4740.82 2264.6C4726.91 2275.8 4716.97 2292.15 4711.01 2313.65V2515H4678.76V2221.78H4710.47L4711.01 2268.39C4728.17 2233.71 4755.73 2216.36 4793.67 2216.36C4802.7 2216.36 4809.83 2217.54 4815.07 2219.89L4814.26 2249.42ZM4914.59 2364.06C4914.59 2335.87 4920.01 2310.49 4930.85 2287.91C4941.87 2265.32 4957.32 2247.8 4977.19 2235.33C4997.25 2222.69 5019.92 2216.36 5045.21 2216.36C5084.24 2216.36 5115.85 2230.09 5140.06 2257.55C5164.27 2284.83 5176.38 2321.06 5176.38 2366.22V2373C5176.38 2401.36 5170.87 2426.93 5159.85 2449.69C5149.01 2472.27 5133.65 2489.71 5113.78 2501.99C5093.9 2514.28 5071.23 2520.42 5045.76 2520.42C5006.91 2520.42 4975.3 2506.78 4950.91 2479.5C4926.7 2452.04 4914.59 2415.73 4914.59 2370.56V2364.06ZM4947.11 2373C4947.11 2408.05 4956.15 2436.86 4974.21 2459.45C4992.46 2481.85 5016.31 2493.05 5045.76 2493.05C5075.02 2493.05 5098.69 2481.85 5116.76 2459.45C5135 2436.86 5144.13 2407.14 5144.13 2370.29V2364.06C5144.13 2341.65 5139.97 2321.15 5131.66 2302.54C5123.35 2283.93 5111.7 2269.57 5096.7 2259.45C5081.71 2249.15 5064.55 2244 5045.21 2244C5016.31 2244 4992.73 2255.39 4974.48 2278.15C4956.24 2300.73 4947.11 2330.36 4947.11 2367.04V2373ZM5345.27 2221.78L5346.36 2269.48C5357.2 2251.77 5370.75 2238.49 5387.01 2229.64C5403.27 2220.79 5421.33 2216.36 5441.2 2216.36C5487.45 2216.36 5516.81 2235.33 5529.28 2273.27C5539.76 2255.02 5553.76 2241.02 5571.28 2231.27C5588.81 2221.33 5608.14 2216.36 5629.28 2216.36C5692.15 2216.36 5724.22 2250.69 5725.48 2319.34V2515H5692.96V2321.78C5692.78 2295.58 5687.09 2276.16 5675.89 2263.52C5664.87 2250.87 5646.8 2244.55 5621.69 2244.55C5598.38 2244.91 5578.69 2252.5 5562.61 2267.31C5546.53 2281.94 5537.59 2299.83 5535.78 2320.97V2515H5503.26V2319.34C5503.08 2294.23 5497.12 2275.53 5485.38 2263.24C5473.81 2250.78 5455.93 2244.55 5431.72 2244.55C5411.3 2244.55 5393.78 2250.42 5379.15 2262.16C5364.51 2273.72 5353.67 2290.98 5346.63 2313.92V2515H5314.11V2221.78H5345.27ZM6388.47 2515H6355.13L6128.31 2177.34V2515H6094.71V2120.43H6128.31L6355.4 2458.36V2120.43H6388.47V2515ZM6535.41 2364.06C6535.41 2335.87 6540.83 2310.49 6551.67 2287.91C6562.69 2265.32 6578.14 2247.8 6598.01 2235.33C6618.06 2222.69 6640.74 2216.36 6666.03 2216.36C6705.05 2216.36 6736.67 2230.09 6760.88 2257.55C6785.09 2284.83 6797.19 2321.06 6797.19 2366.22V2373C6797.19 2401.36 6791.68 2426.93 6780.66 2449.69C6769.82 2472.27 6754.47 2489.71 6734.59 2501.99C6714.72 2514.28 6692.05 2520.42 6666.57 2520.42C6627.73 2520.42 6596.11 2506.78 6571.72 2479.5C6547.52 2452.04 6535.41 2415.73 6535.41 2370.56V2364.06ZM6567.93 2373C6567.93 2408.05 6576.96 2436.86 6595.03 2459.45C6613.28 2481.85 6637.12 2493.05 6666.57 2493.05C6695.84 2493.05 6719.51 2481.85 6737.57 2459.45C6755.82 2436.86 6764.94 2407.14 6764.94 2370.29V2364.06C6764.94 2341.65 6760.79 2321.15 6752.48 2302.54C6744.17 2283.93 6732.52 2269.57 6717.52 2259.45C6702.53 2249.15 6685.36 2244 6666.03 2244C6637.12 2244 6613.55 2255.39 6595.3 2278.15C6577.05 2300.73 6567.93 2330.36 6567.93 2367.04V2373ZM6986.96 2146.72V2221.78H7047.66V2248.34H6986.96V2443.73C6986.96 2459.99 6989.85 2472.09 6995.63 2480.04C7001.59 2487.99 7011.44 2491.97 7025.17 2491.97C7030.59 2491.97 7039.35 2491.06 7051.45 2489.26L7052.81 2515.81C7044.32 2518.88 7032.75 2520.42 7018.12 2520.42C6995.9 2520.42 6979.73 2514.01 6969.61 2501.18C6959.49 2488.17 6954.44 2469.11 6954.44 2444V2248.34H6900.51V2221.78H6954.44V2146.72H6986.96ZM7219.26 2271.37C7229.92 2253.85 7243.56 2240.3 7260.18 2230.73C7276.81 2221.15 7294.96 2216.36 7314.66 2216.36C7346.09 2216.36 7369.49 2225.21 7384.84 2242.92C7400.2 2260.62 7407.97 2287.18 7408.15 2322.59V2515H7375.9V2322.32C7375.72 2296.13 7370.12 2276.61 7359.1 2263.79C7348.26 2250.96 7330.82 2244.55 7306.8 2244.55C7286.74 2244.55 7268.95 2250.87 7253.41 2263.52C7238.05 2275.98 7226.67 2292.87 7219.26 2314.19V2515H7187.02V2098.75H7219.26V2271.37ZM7600.08 2515H7567.56V2221.78H7600.08V2515ZM7561.87 2136.96C7561.87 2130.82 7563.86 2125.67 7567.83 2121.51C7571.81 2117.18 7577.23 2115.01 7584.09 2115.01C7590.96 2115.01 7596.38 2117.18 7600.35 2121.51C7604.51 2125.67 7606.58 2130.82 7606.58 2136.96C7606.58 2143.1 7604.51 2148.25 7600.35 2152.41C7596.38 2156.56 7590.96 2158.64 7584.09 2158.64C7577.23 2158.64 7571.81 2156.56 7567.83 2152.41C7563.86 2148.25 7561.87 2143.1 7561.87 2136.96ZM7791.47 2221.78L7792.55 2271.92C7803.57 2253.85 7817.3 2240.12 7833.74 2230.73C7850.18 2221.15 7868.34 2216.36 7888.21 2216.36C7919.65 2216.36 7943.04 2225.21 7958.4 2242.92C7973.76 2260.62 7981.53 2287.18 7981.71 2322.59V2515H7949.46V2322.32C7949.28 2296.13 7943.68 2276.61 7932.66 2263.79C7921.82 2250.96 7904.38 2244.55 7880.35 2244.55C7860.3 2244.55 7842.5 2250.87 7826.97 2263.52C7811.61 2275.98 7800.23 2292.87 7792.82 2314.19V2515H7760.57V2221.78H7791.47ZM8124.86 2365.68C8124.86 2319.79 8134.97 2283.48 8155.21 2256.74C8175.62 2229.82 8203.27 2216.36 8238.13 2216.36C8278.06 2216.36 8308.41 2232.26 8329.19 2264.06L8330.81 2221.78H8361.17V2509.04C8361.17 2546.8 8350.6 2576.7 8329.46 2598.74C8308.32 2620.78 8279.69 2631.8 8243.55 2631.8C8223.14 2631.8 8203.63 2627.19 8185.02 2617.98C8166.59 2608.95 8152.05 2596.84 8141.39 2581.67L8159.54 2562.15C8182.49 2590.34 8209.77 2604.43 8241.39 2604.43C8268.49 2604.43 8289.62 2596.39 8304.8 2580.31C8319.97 2564.41 8327.83 2542.28 8328.38 2513.92V2477.06C8307.6 2505.97 8277.34 2520.42 8237.59 2520.42C8203.63 2520.42 8176.35 2506.87 8155.75 2479.77C8135.16 2452.67 8124.86 2416.09 8124.86 2370.02V2365.68ZM8157.65 2371.37C8157.65 2408.77 8165.15 2438.31 8180.14 2459.99C8195.14 2481.49 8216.27 2492.24 8243.55 2492.24C8283.48 2492.24 8311.75 2474.35 8328.38 2438.58V2302.27C8320.79 2283.48 8309.86 2269.21 8295.58 2259.45C8281.31 2249.51 8264.15 2244.55 8244.1 2244.55C8216.82 2244.55 8195.59 2255.3 8180.41 2276.79C8165.24 2298.11 8157.65 2329.64 8157.65 2371.37ZM8775.38 2146.72V2221.78H8836.08V2248.34H8775.38V2443.73C8775.38 2459.99 8778.27 2472.09 8784.05 2480.04C8790.01 2487.99 8799.86 2491.97 8813.59 2491.97C8819.01 2491.97 8827.77 2491.06 8839.88 2489.26L8841.23 2515.81C8832.74 2518.88 8821.18 2520.42 8806.54 2520.42C8784.32 2520.42 8768.15 2514.01 8758.03 2501.18C8747.92 2488.17 8742.86 2469.11 8742.86 2444V2248.34H8688.93V2221.78H8742.86V2146.72H8775.38ZM8952.13 2364.06C8952.13 2335.87 8957.55 2310.49 8968.39 2287.91C8979.41 2265.32 8994.86 2247.8 9014.73 2235.33C9034.79 2222.69 9057.46 2216.36 9082.75 2216.36C9121.78 2216.36 9153.39 2230.09 9177.6 2257.55C9201.81 2284.83 9213.92 2321.06 9213.92 2366.22V2373C9213.92 2401.36 9208.4 2426.93 9197.38 2449.69C9186.54 2472.27 9171.19 2489.71 9151.31 2501.99C9131.44 2514.28 9108.77 2520.42 9083.29 2520.42C9044.45 2520.42 9012.84 2506.78 8988.45 2479.5C8964.24 2452.04 8952.13 2415.73 8952.13 2370.56V2364.06ZM8984.65 2373C8984.65 2408.05 8993.69 2436.86 9011.75 2459.45C9030 2481.85 9053.85 2493.05 9083.29 2493.05C9112.56 2493.05 9136.23 2481.85 9154.3 2459.45C9172.54 2436.86 9181.67 2407.14 9181.67 2370.29V2364.06C9181.67 2341.65 9177.51 2321.15 9169.2 2302.54C9160.89 2283.93 9149.24 2269.57 9134.24 2259.45C9119.25 2249.15 9102.08 2244 9082.75 2244C9053.85 2244 9030.27 2255.39 9012.02 2278.15C8993.78 2300.73 8984.65 2330.36 8984.65 2367.04V2373ZM9791.27 2417.98C9791.27 2396.12 9783.59 2378.87 9768.23 2366.22C9752.88 2353.4 9724.78 2341.29 9683.95 2329.91C9643.12 2318.35 9613.31 2305.79 9594.52 2292.24C9567.79 2273.09 9554.42 2247.98 9554.42 2216.9C9554.42 2186.73 9566.79 2162.25 9591.54 2143.46C9616.47 2124.49 9648.27 2115.01 9686.93 2115.01C9713.13 2115.01 9736.53 2120.07 9757.12 2130.19C9777.9 2140.3 9793.98 2154.39 9805.36 2172.46C9816.74 2190.53 9822.43 2210.67 9822.43 2232.89H9788.83C9788.83 2205.97 9779.61 2184.38 9761.19 2168.12C9742.76 2151.68 9718.01 2143.46 9686.93 2143.46C9656.76 2143.46 9632.73 2150.24 9614.85 2163.79C9596.96 2177.16 9588.02 2194.68 9588.02 2216.36C9588.02 2236.42 9596.06 2252.77 9612.14 2265.41C9628.22 2278.06 9653.96 2289.26 9689.37 2299.02C9724.78 2308.59 9751.61 2318.62 9769.86 2329.1C9788.1 2339.39 9801.84 2351.77 9811.05 2366.22C9820.26 2380.68 9824.87 2397.75 9824.87 2417.44C9824.87 2448.52 9812.4 2473.45 9787.47 2492.24C9762.72 2511.03 9730.02 2520.42 9689.37 2520.42C9661.55 2520.42 9635.99 2515.45 9612.68 2505.52C9589.56 2495.58 9571.94 2481.67 9559.84 2463.78C9547.91 2445.9 9541.95 2425.39 9541.95 2402.27H9575.28C9575.28 2430.09 9585.67 2452.04 9606.45 2468.12C9627.22 2484.2 9654.87 2492.24 9689.37 2492.24C9720.08 2492.24 9744.75 2485.46 9763.35 2471.91C9781.96 2458.36 9791.27 2440.39 9791.27 2417.98ZM9943.63 2364.06C9943.63 2335.87 9949.05 2310.49 9959.89 2287.91C9970.91 2265.32 9986.36 2247.8 10006.2 2235.33C10026.3 2222.69 10049 2216.36 10074.3 2216.36C10113.3 2216.36 10144.9 2230.09 10169.1 2257.55C10193.3 2284.83 10205.4 2321.06 10205.4 2366.22V2373C10205.4 2401.36 10199.9 2426.93 10188.9 2449.69C10178 2472.27 10162.7 2489.71 10142.8 2501.99C10122.9 2514.28 10100.3 2520.42 10074.8 2520.42C10036 2520.42 10004.3 2506.78 9979.94 2479.5C9955.74 2452.04 9943.63 2415.73 9943.63 2370.56V2364.06ZM9976.15 2373C9976.15 2408.05 9985.18 2436.86 10003.3 2459.45C10021.5 2481.85 10045.3 2493.05 10074.8 2493.05C10104.1 2493.05 10127.7 2481.85 10145.8 2459.45C10164 2436.86 10173.2 2407.14 10173.2 2370.29V2364.06C10173.2 2341.65 10169 2321.15 10160.7 2302.54C10152.4 2283.93 10140.7 2269.57 10125.7 2259.45C10110.7 2249.15 10093.6 2244 10074.3 2244C10045.3 2244 10021.8 2255.39 10003.5 2278.15C9985.27 2300.73 9976.15 2330.36 9976.15 2367.04V2373ZM10374.3 2221.78L10375.4 2269.48C10386.2 2251.77 10399.8 2238.49 10416 2229.64C10432.3 2220.79 10450.4 2216.36 10470.2 2216.36C10516.5 2216.36 10545.9 2235.33 10558.3 2273.27C10568.8 2255.02 10582.8 2241.02 10600.3 2231.27C10617.8 2221.33 10637.2 2216.36 10658.3 2216.36C10721.2 2216.36 10753.3 2250.69 10754.5 2319.34V2515H10722V2321.78C10721.8 2295.58 10716.1 2276.16 10704.9 2263.52C10693.9 2250.87 10675.8 2244.55 10650.7 2244.55C10627.4 2244.91 10607.7 2252.5 10591.6 2267.31C10575.6 2281.94 10566.6 2299.83 10564.8 2320.97V2515H10532.3V2319.34C10532.1 2294.23 10526.2 2275.53 10514.4 2263.24C10502.9 2250.78 10485 2244.55 10460.8 2244.55C10440.3 2244.55 10422.8 2250.42 10408.2 2262.16C10393.6 2273.72 10382.7 2290.98 10375.7 2313.92V2515H10343.1V2221.78H10374.3ZM11022.6 2520.42C10997.7 2520.42 10975.1 2514.28 10954.8 2501.99C10934.8 2489.71 10919.2 2472.63 10908 2450.77C10896.8 2428.73 10891.2 2404.07 10891.2 2376.79V2365.14C10891.2 2336.96 10896.6 2311.57 10907.4 2288.99C10918.4 2266.41 10933.7 2248.7 10953.2 2235.87C10972.7 2222.87 10993.9 2216.36 11016.6 2216.36C11052.2 2216.36 11080.4 2228.56 11101.2 2252.95C11122.1 2277.16 11132.6 2310.31 11132.6 2352.4V2370.56H10923.4V2376.79C10923.4 2410.03 10932.9 2437.77 10951.9 2459.99C10971 2482.03 10995 2493.05 11024 2493.05C11041.3 2493.05 11056.6 2489.89 11069.8 2483.56C11083.1 2477.24 11095.2 2467.12 11106.1 2453.21L11126.4 2468.66C11102.5 2503.17 11067.9 2520.42 11022.6 2520.42ZM11016.6 2244C10992.2 2244 10971.6 2252.95 10954.8 2270.83C10938.2 2288.72 10928.1 2312.75 10924.5 2342.92H11100.4V2339.39C11099.5 2311.21 11091.4 2288.27 11076.3 2270.56C11061.1 2252.86 11041.2 2244 11016.6 2244ZM11318.3 2146.72V2221.78H11379V2248.34H11318.3V2443.73C11318.3 2459.99 11321.2 2472.09 11327 2480.04C11333 2487.99 11342.8 2491.97 11356.5 2491.97C11361.9 2491.97 11370.7 2491.06 11382.8 2489.26L11384.2 2515.81C11375.7 2518.88 11364.1 2520.42 11349.5 2520.42C11327.3 2520.42 11311.1 2514.01 11301 2501.18C11290.9 2488.17 11285.8 2469.11 11285.8 2444V2248.34H11231.9V2221.78H11285.8V2146.72H11318.3ZM11550.6 2271.37C11561.3 2253.85 11574.9 2240.3 11591.5 2230.73C11608.2 2221.15 11626.3 2216.36 11646 2216.36C11677.5 2216.36 11700.8 2225.21 11716.2 2242.92C11731.6 2260.62 11739.3 2287.18 11739.5 2322.59V2515H11707.3V2322.32C11707.1 2296.13 11701.5 2276.61 11690.5 2263.79C11679.6 2250.96 11662.2 2244.55 11638.2 2244.55C11618.1 2244.55 11600.3 2250.87 11584.8 2263.52C11569.4 2275.98 11558 2292.87 11550.6 2314.19V2515H11518.4V2098.75H11550.6V2271.37ZM11931.4 2515H11898.9V2221.78H11931.4V2515ZM11893.2 2136.96C11893.2 2130.82 11895.2 2125.67 11899.2 2121.51C11903.2 2117.18 11908.6 2115.01 11915.5 2115.01C11922.3 2115.01 11927.7 2117.18 11931.7 2121.51C11935.9 2125.67 11937.9 2130.82 11937.9 2136.96C11937.9 2143.1 11935.9 2148.25 11931.7 2152.41C11927.7 2156.56 11922.3 2158.64 11915.5 2158.64C11908.6 2158.64 11903.2 2156.56 11899.2 2152.41C11895.2 2148.25 11893.2 2143.1 11893.2 2136.96ZM12122.8 2221.78L12123.9 2271.92C12134.9 2253.85 12148.7 2240.12 12165.1 2230.73C12181.5 2221.15 12199.7 2216.36 12219.6 2216.36C12251 2216.36 12274.4 2225.21 12289.8 2242.92C12305.1 2260.62 12312.9 2287.18 12313.1 2322.59V2515H12280.8V2322.32C12280.6 2296.13 12275 2276.61 12264 2263.79C12253.2 2250.96 12235.7 2244.55 12211.7 2244.55C12191.7 2244.55 12173.9 2250.87 12158.3 2263.52C12143 2275.98 12131.6 2292.87 12124.2 2314.19V2515H12091.9V2221.78H12122.8ZM12456.2 2365.68C12456.2 2319.79 12466.3 2283.48 12486.6 2256.74C12507 2229.82 12534.6 2216.36 12569.5 2216.36C12609.4 2216.36 12639.8 2232.26 12660.6 2264.06L12662.2 2221.78H12692.5V2509.04C12692.5 2546.8 12682 2576.7 12660.8 2598.74C12639.7 2620.78 12611 2631.8 12574.9 2631.8C12554.5 2631.8 12535 2627.19 12516.4 2617.98C12498 2608.95 12483.4 2596.84 12472.8 2581.67L12490.9 2562.15C12513.9 2590.34 12541.1 2604.43 12572.7 2604.43C12599.8 2604.43 12621 2596.39 12636.2 2580.31C12651.3 2564.41 12659.2 2542.28 12659.7 2513.92V2477.06C12639 2505.97 12608.7 2520.42 12569 2520.42C12535 2520.42 12507.7 2506.87 12487.1 2479.77C12466.5 2452.67 12456.2 2416.09 12456.2 2370.02V2365.68ZM12489 2371.37C12489 2408.77 12496.5 2438.31 12511.5 2459.99C12526.5 2481.49 12547.6 2492.24 12574.9 2492.24C12614.8 2492.24 12643.1 2474.35 12659.7 2438.58V2302.27C12652.2 2283.48 12641.2 2269.21 12626.9 2259.45C12612.7 2249.51 12595.5 2244.55 12575.5 2244.55C12548.2 2244.55 12527 2255.3 12511.8 2276.79C12496.6 2298.11 12489 2329.64 12489 2371.37Z" fill="#444444"/>
<path d="M4661.43 712.582L4515.51 1286.29C4514.17 1290.29 4514.84 1294.29 4517.51 1298.29C4521.5 1300.95 4525.5 1302.29 4529.5 1302.29H4797.37C4801.36 1302.29 4804.7 1300.95 4807.36 1298.29C4811.36 1294.29 4812.69 1290.29 4811.36 1286.29L4665.43 712.582C4665.43 711.249 4664.77 710.583 4663.43 710.583C4662.1 710.583 4661.43 711.249 4661.43 712.582ZM4127.7 1876C4099.72 1876 4077.06 1864.67 4059.74 1842.02C4043.74 1819.36 4040.41 1794.71 4049.74 1768.05L4453.54 524.676C4464.2 492.692 4482.86 466.705 4509.51 446.715C4537.5 426.725 4568.15 416.73 4601.46 416.73H4733.4C4768.05 416.73 4799.37 426.725 4827.35 446.715C4855.34 466.705 4873.99 492.692 4883.32 524.676L5285.12 1768.05C5294.45 1794.71 5290.45 1819.36 5273.13 1842.02C5257.14 1864.67 5235.15 1876 5207.16 1876H5073.23C5039.91 1876 5009.93 1866 4983.27 1846.01C4956.62 1824.69 4939.3 1798.04 4931.3 1766.05L4883.32 1576.15C4881.99 1565.49 4875.33 1560.16 4863.33 1560.16H4463.53C4452.87 1560.16 4446.21 1565.49 4443.54 1576.15L4395.57 1766.05C4387.57 1798.04 4370.25 1824.69 4343.59 1846.01C4316.94 1866 4286.95 1876 4253.64 1876H4127.7ZM5802.99 1876C5772.34 1876 5745.68 1864.67 5723.03 1842.02C5700.37 1819.36 5689.04 1792.71 5689.04 1762.06V530.673C5689.04 500.022 5700.37 473.368 5723.03 450.713C5745.68 428.058 5772.34 416.73 5802.99 416.73H5900.94C5976.9 416.73 6032.21 450.047 6066.86 516.68L6486.65 1310.28C6486.65 1311.62 6487.31 1312.28 6488.64 1312.28C6489.98 1312.28 6490.64 1311.62 6490.64 1310.28V530.673C6490.64 500.022 6501.97 473.368 6524.63 450.713C6547.28 428.058 6573.94 416.73 6604.59 416.73H6702.54C6733.19 416.73 6759.84 428.058 6782.5 450.713C6805.15 473.368 6816.48 500.022 6816.48 530.673V1762.06C6816.48 1792.71 6805.15 1819.36 6782.5 1842.02C6759.84 1864.67 6733.19 1876 6702.54 1876H6604.59C6528.63 1876 6473.32 1842.68 6438.67 1776.05L6018.88 982.447C6018.88 981.114 6018.21 980.448 6016.88 980.448C6015.55 980.448 6014.88 981.114 6014.88 982.447V1762.06C6014.88 1792.71 6003.55 1819.36 5980.9 1842.02C5958.24 1864.67 5931.59 1876 5900.94 1876H5802.99ZM7953.55 1895.99C7735 1895.99 7563.08 1831.36 7437.81 1702.09C7312.54 1572.82 7249.9 1387.58 7249.9 1146.36C7249.9 909.15 7310.54 725.242 7431.81 594.641C7553.09 462.707 7722.34 396.74 7939.56 396.74C8043.51 396.74 8134.13 404.07 8211.42 418.729C8243.41 424.06 8269.39 440.052 8289.38 466.705C8309.37 493.358 8319.37 523.343 8319.37 556.66V620.628C8319.37 648.614 8308.04 670.603 8285.39 686.595C8262.73 702.587 8238.08 707.251 8211.42 700.588C8135.46 680.598 8058.17 670.603 7979.54 670.603C7859.6 670.603 7765.65 711.249 7697.68 792.542C7631.05 873.835 7597.73 991.776 7597.73 1146.36C7597.73 1298.29 7633.71 1416.23 7705.68 1500.19C7777.64 1584.15 7873.59 1626.12 7993.53 1626.12C8073.49 1626.12 8151.45 1616.13 8227.42 1596.14C8254.07 1589.48 8278.72 1594.14 8301.38 1610.13C8325.37 1626.12 8337.36 1648.11 8337.36 1676.1V1736.07C8337.36 1769.39 8326.7 1799.37 8305.38 1826.02C8285.39 1852.68 8259.4 1868.67 8227.42 1874C8148.79 1888.66 8057.5 1895.99 7953.55 1895.99ZM8964.02 1876C8933.36 1876 8906.71 1864.67 8884.06 1842.02C8862.73 1819.36 8852.07 1792.71 8852.07 1762.06V530.673C8852.07 500.022 8862.73 473.368 8884.06 450.713C8906.71 428.058 8933.36 416.73 8964.02 416.73H9671.66C9702.31 416.73 9728.3 428.058 9749.62 450.713C9772.28 473.368 9783.61 500.022 9783.61 530.673V576.65C9783.61 607.301 9772.28 633.955 9749.62 656.61C9728.3 679.265 9702.31 690.593 9671.66 690.593H9207.89C9197.23 690.593 9191.9 695.924 9191.9 706.585V970.453C9191.9 982.447 9197.23 988.444 9207.89 988.444H9631.68C9662.33 988.444 9688.32 999.772 9709.64 1022.43C9732.3 1045.08 9743.63 1071.74 9743.63 1102.39V1132.37C9743.63 1163.02 9732.3 1189.68 9709.64 1212.33C9688.32 1234.99 9662.33 1246.31 9631.68 1246.31H9207.89C9197.23 1246.31 9191.9 1251.65 9191.9 1262.31V1586.14C9191.9 1596.81 9197.23 1602.14 9207.89 1602.14H9671.66C9702.31 1602.14 9728.3 1613.46 9749.62 1636.12C9772.28 1658.78 9783.61 1685.43 9783.61 1716.08V1762.06C9783.61 1792.71 9772.28 1819.36 9749.62 1842.02C9728.3 1864.67 9702.31 1876 9671.66 1876H8964.02ZM10402.1 1876C10371.4 1876 10344.8 1864.67 10322.1 1842.02C10299.5 1819.36 10288.2 1792.71 10288.2 1762.06V530.673C10288.2 500.022 10299.5 473.368 10322.1 450.713C10344.8 428.058 10371.4 416.73 10402.1 416.73H10500C10576 416.73 10631.3 450.047 10666 516.68L11085.8 1310.28C11085.8 1311.62 11086.4 1312.28 11087.8 1312.28C11089.1 1312.28 11089.7 1311.62 11089.7 1310.28V530.673C11089.7 500.022 11101.1 473.368 11123.7 450.713C11146.4 428.058 11173 416.73 11203.7 416.73H11301.6C11332.3 416.73 11358.9 428.058 11381.6 450.713C11404.3 473.368 11415.6 500.022 11415.6 530.673V1762.06C11415.6 1792.71 11404.3 1819.36 11381.6 1842.02C11358.9 1864.67 11332.3 1876 11301.6 1876H11203.7C11127.7 1876 11072.4 1842.68 11037.8 1776.05L10618 982.447C10618 981.114 10617.3 980.448 10616 980.448C10614.7 980.448 10614 981.114 10614 982.447V1762.06C10614 1792.71 10602.7 1819.36 10580 1842.02C10557.3 1864.67 10530.7 1876 10500 1876H10402.1ZM12050.9 1876C12020.3 1876 11993.6 1864.67 11970.9 1842.02C11949.6 1819.36 11939 1792.71 11939 1762.06V530.673C11939 500.022 11949.6 473.368 11970.9 450.713C11993.6 428.058 12020.3 416.73 12050.9 416.73H12758.6C12789.2 416.73 12815.2 428.058 12836.5 450.713C12859.2 473.368 12870.5 500.022 12870.5 530.673V576.65C12870.5 607.301 12859.2 633.955 12836.5 656.61C12815.2 679.265 12789.2 690.593 12758.6 690.593H12294.8C12284.1 690.593 12278.8 695.924 12278.8 706.585V970.453C12278.8 982.447 12284.1 988.444 12294.8 988.444H12718.6C12749.2 988.444 12775.2 999.772 12796.5 1022.43C12819.2 1045.08 12830.5 1071.74 12830.5 1102.39V1132.37C12830.5 1163.02 12819.2 1189.68 12796.5 1212.33C12775.2 1234.99 12749.2 1246.31 12718.6 1246.31H12294.8C12284.1 1246.31 12278.8 1251.65 12278.8 1262.31V1586.14C12278.8 1596.81 12284.1 1602.14 12294.8 1602.14H12758.6C12789.2 1602.14 12815.2 1613.46 12836.5 1636.12C12859.2 1658.78 12870.5 1685.43 12870.5 1716.08V1762.06C12870.5 1792.71 12859.2 1819.36 12836.5 1842.02C12815.2 1864.67 12789.2 1876 12758.6 1876H12050.9Z" fill="#E51B23"/>
<path d="M1969 1550L3447 2325H491L1969 1550Z" fill="#E51B23"/>
<path d="M1969 3100L491 2325L3447 2325L1969 3100Z" fill="#E51B23"/>
<path d="M1969 0L3447 775H491L1969 0Z" fill="#F8C0C3"/>
<path d="M1969 1550L491 775L3447 775L1969 1550Z" fill="#F8C0C3"/>
<path d="M1969 1550L492.25 2323.36L492.25 776.639L1969 1550Z" fill="#F17F87"/>
<path d="M1969 1550L3445.75 776.639V2323.36L1969 1550Z" fill="#F8C0C3"/>
</svg>
